# xmcd
#
# Track frame offsets: 
#        150
#        31183
#        50841
#        87055
#        114345
#        158513
#        178841
#        201655
#        217781
#        240725
#
# Disc length: 3461 seconds
#
# Revision: 1
# Processed by: cddbd v1.5.2PL0 Copyright (c) Steve Scherf et al.
# Submitted via: ExactAudioCopy v1.0b1
#
DISCID=800d830a
DTITLE=DNTEL - Something Always Goes Wrong
DYEAR=2000
DGENRE=Electronic
TTITLE0=in which our hero begins his long and arduous quest
TTITLE1=in which our hero finds a faithful sidekick
TTITLE2=in which our hero is put under a spell
TTITLE3=in which our hero dodges bullets and swords
TTITLE4=in which our hero frees the damsel in distress
TTITLE5=in which our hero is decapitated by the evil king
TTITLE6=in which our hero begins his long and arduous quest (Seq remix
TTITLE6=)
TTITLE7=in which our hero was taken by surprise (Languis remix)
TTITLE8=the S.O.S.
TTITLE9=a machine and a memory keep you alive
EXTD=
EXTT0=
EXTT1=
EXTT2=
EXTT3=
EXTT4=
EXTT5=
EXTT6=
EXTT7=
EXTT8=
EXTT9=
PLAYORDER=
